<svg width="768" height="200" viewBox="0 0 768 200" fill="none" xmlns="http://www.w3.org/2000/svg">
<g clip-path="url(#clip0_0_2238)">
<rect width="768" height="200" fill="#F67E7E"/>
<mask id="mask0_0_2238" style="mask-type:luminance" maskUnits="userSpaceOnUse" x="0" y="0" width="768" height="200">
<rect width="768" height="200" fill="white"/>
</mask>
<g mask="url(#mask0_0_2238)">
<rect x="100" y="222" width="100" height="100" transform="rotate(180 100 222)" fill="#2C6269"/>
<path fill-rule="evenodd" clip-rule="evenodd" d="M100 322C155.228 322 200 277.228 200 222C200 166.772 155.228 122 100 122C44.7715 122 0 166.772 0 222C0 277.228 44.7715 322 100 322ZM100 255C118.225 255 133 240.225 133 222C133 203.775 118.225 189 100 189C81.7746 189 67 203.775 67 222C67 240.225 81.7746 255 100 255Z" fill="#004047"/>
<path fill-rule="evenodd" clip-rule="evenodd" d="M100 178H0V182H100V178ZM100 186H0V190H100V186ZM0 194H100V198H0V194ZM100 202H0V206H100V202ZM0 210H100V214H0V210ZM100 218H0V222H100V218Z" fill="#F67E7E"/>
<path fill-rule="evenodd" clip-rule="evenodd" d="M0 78H4V82H0V78ZM11 78H7V82H11V78ZM11 86H7V90H11V86ZM7 94H11V98H7V94ZM11 102H7V106H11V102ZM7 110H11V114H7V110ZM11 118H7V122H11V118ZM14 78H18V82H14V78ZM14 86H18V90H14V86ZM18 94H14V98H18V94ZM14 102H18V106H14V102ZM18 110H14V114H18V110ZM14 118H18V122H14V118ZM0 86H4V90H0V86ZM21 78H25V82H21V78ZM21 86H25V90H21V86ZM25 94H21V98H25V94ZM21 102H25V106H21V102ZM25 110H21V114H25V110ZM21 118H25V122H21V118ZM0 94H4V98H0V94ZM28 78H32V82H28V78ZM28 86H32V90H28V86ZM32 94H28V98H32V94ZM28 102H32V106H28V102ZM32 110H28V114H32V110ZM28 118H32V122H28V118ZM0 102H4V106H0V102ZM35 78H39V82H35V78ZM35 86H39V90H35V86ZM39 94H35V98H39V94ZM35 102H39V106H35V102ZM39 110H35V114H39V110ZM35 118H39V122H35V118ZM0 110H4V114H0V110ZM42 78H46V82H42V78ZM42 86H46V90H42V86ZM46 94H42V98H46V94ZM42 102H46V106H42V102ZM46 110H42V114H46V110ZM42 118H46V122H42V118ZM0 118H4V122H0V118ZM49 78H53V82H49V78ZM49 86H53V90H49V86ZM53 94H49V98H53V94ZM49 102H53V106H49V102ZM53 110H49V114H53V110ZM49 118H53V122H49V118Z" fill="#79C8C7"/>
</g>
<g clip-path="url(#clip1_0_2238)">
<rect x="518" y="77" width="151" height="46" rx="23" stroke="#012F34" stroke-width="2"/>
<path d="M554.22 106.162C552.84 106.162 551.748 105.766 550.944 104.974C550.14 104.17 549.738 103.054 549.738 101.626C549.738 100.666 549.936 99.82 550.332 99.088C550.728 98.356 551.28 97.786 551.988 97.378C552.696 96.97 553.512 96.766 554.436 96.766C555.204 96.766 555.876 96.916 556.452 97.216C557.028 97.516 557.496 97.984 557.856 98.62L556.29 99.808C556.062 99.424 555.798 99.148 555.498 98.98C555.21 98.812 554.856 98.728 554.436 98.728C553.728 98.728 553.146 98.992 552.69 99.52C552.246 100.048 552.024 100.744 552.024 101.608C552.024 102.448 552.222 103.096 552.618 103.552C553.026 103.996 553.608 104.218 554.364 104.218C554.76 104.218 555.126 104.128 555.462 103.948C555.81 103.768 556.098 103.486 556.326 103.102L557.856 104.326C557.448 104.986 556.932 105.46 556.308 105.748C555.684 106.024 554.988 106.162 554.22 106.162ZM562.961 96.766C564.317 96.766 565.379 97.174 566.147 97.99C566.927 98.794 567.317 99.886 567.317 101.266C567.317 102.202 567.119 103.042 566.723 103.786C566.339 104.518 565.793 105.1 565.085 105.532C564.377 105.952 563.555 106.162 562.619 106.162C561.263 106.162 560.195 105.76 559.415 104.956C558.647 104.152 558.263 103.054 558.263 101.662C558.263 100.726 558.455 99.892 558.839 99.16C559.235 98.416 559.781 97.834 560.477 97.414C561.185 96.982 562.013 96.766 562.961 96.766ZM562.691 104.236C563.399 104.236 563.969 103.966 564.401 103.426C564.833 102.886 565.049 102.166 565.049 101.266C565.049 100.45 564.857 99.82 564.473 99.376C564.101 98.932 563.585 98.71 562.925 98.71C562.193 98.71 561.611 98.98 561.179 99.52C560.747 100.06 560.531 100.774 560.531 101.662C560.531 102.478 560.717 103.114 561.089 103.57C561.473 104.014 562.007 104.236 562.691 104.236ZM569.225 106V96.91H571.421L571.313 99.196C571.661 98.416 572.135 97.816 572.735 97.396C573.335 96.976 574.019 96.766 574.787 96.766C575.807 96.766 576.575 97.12 577.091 97.828C577.619 98.524 577.877 99.526 577.865 100.834L577.829 106H575.633L575.669 101.014C575.681 100.306 575.567 99.766 575.327 99.394C575.099 99.01 574.727 98.818 574.211 98.818C573.815 98.818 573.449 98.932 573.113 99.16C572.777 99.388 572.483 99.778 572.231 100.33C571.979 100.87 571.781 101.608 571.637 102.544C571.493 103.468 571.415 104.62 571.403 106H569.225ZM583.922 106.162C582.83 106.162 581.978 105.862 581.366 105.262C580.766 104.662 580.472 103.876 580.484 102.904L580.556 98.746H579.008V96.91H580.592L580.61 95.038H582.806L582.77 96.91H585.74V98.746H582.752L582.698 102.67C582.686 103.162 582.806 103.552 583.058 103.84C583.322 104.116 583.712 104.254 584.228 104.254C584.504 104.254 584.762 104.218 585.002 104.146C585.242 104.074 585.494 103.942 585.758 103.75L586.406 105.442C586.13 105.682 585.776 105.862 585.344 105.982C584.912 106.102 584.438 106.162 583.922 106.162ZM595.686 96.946V106H593.454L593.526 104.416C593.202 104.968 592.776 105.4 592.248 105.712C591.732 106.012 591.138 106.162 590.466 106.162C589.674 106.162 589.002 105.982 588.45 105.622C587.898 105.25 587.478 104.74 587.19 104.092C586.902 103.444 586.758 102.7 586.758 101.86C586.758 100.852 586.956 99.97 587.352 99.214C587.748 98.446 588.288 97.846 588.972 97.414C589.668 96.982 590.448 96.766 591.312 96.766C591.888 96.766 592.398 96.892 592.842 97.144C593.286 97.384 593.628 97.708 593.868 98.116L594.084 96.946H595.686ZM591.474 98.71C590.73 98.71 590.136 98.992 589.692 99.556C589.248 100.12 589.026 100.858 589.026 101.77C589.026 102.55 589.194 103.156 589.53 103.588C589.866 104.02 590.328 104.236 590.916 104.236C591.396 104.236 591.828 104.098 592.212 103.822C592.608 103.546 592.92 103.162 593.148 102.67C593.376 102.178 593.49 101.614 593.49 100.978C593.49 100.27 593.31 99.718 592.95 99.322C592.59 98.914 592.098 98.71 591.474 98.71ZM602.068 106.162C600.688 106.162 599.596 105.766 598.792 104.974C597.988 104.17 597.586 103.054 597.586 101.626C597.586 100.666 597.784 99.82 598.18 99.088C598.576 98.356 599.128 97.786 599.836 97.378C600.544 96.97 601.36 96.766 602.284 96.766C603.052 96.766 603.724 96.916 604.3 97.216C604.876 97.516 605.344 97.984 605.704 98.62L604.138 99.808C603.91 99.424 603.646 99.148 603.346 98.98C603.058 98.812 602.704 98.728 602.284 98.728C601.576 98.728 600.994 98.992 600.538 99.52C600.094 100.048 599.872 100.744 599.872 101.608C599.872 102.448 600.07 103.096 600.466 103.552C600.874 103.996 601.456 104.218 602.212 104.218C602.608 104.218 602.974 104.128 603.31 103.948C603.658 103.768 603.946 103.486 604.174 103.102L605.704 104.326C605.296 104.986 604.78 105.46 604.156 105.748C603.532 106.024 602.836 106.162 602.068 106.162ZM610.835 106.162C609.743 106.162 608.891 105.862 608.279 105.262C607.679 104.662 607.385 103.876 607.397 102.904L607.469 98.746H605.921V96.91H607.505L607.523 95.038H609.719L609.683 96.91H612.653V98.746H609.665L609.611 102.67C609.599 103.162 609.719 103.552 609.971 103.84C610.235 104.116 610.625 104.254 611.141 104.254C611.417 104.254 611.675 104.218 611.915 104.146C612.155 104.074 612.407 103.942 612.671 103.75L613.319 105.442C613.043 105.682 612.689 105.862 612.257 105.982C611.825 106.102 611.351 106.162 610.835 106.162ZM621.552 106.162C620.544 106.162 619.782 105.82 619.266 105.136C618.762 104.452 618.516 103.504 618.528 102.292L618.564 96.91H620.76L620.724 102.094C620.712 102.718 620.82 103.21 621.048 103.57C621.276 103.93 621.636 104.11 622.128 104.11C622.512 104.11 622.866 103.996 623.19 103.768C623.526 103.54 623.814 103.156 624.054 102.616C624.294 102.064 624.48 101.326 624.612 100.402C624.756 99.466 624.828 98.302 624.828 96.91H626.952V106H624.738L624.864 103.93C624.504 104.662 624.036 105.22 623.46 105.604C622.896 105.976 622.26 106.162 621.552 106.162ZM632.475 106.162C631.227 106.162 630.273 105.928 629.613 105.46C628.953 104.98 628.569 104.314 628.461 103.462L630.315 103.012C630.387 103.468 630.597 103.822 630.945 104.074C631.293 104.314 631.791 104.434 632.439 104.434C632.967 104.434 633.363 104.35 633.627 104.182C633.903 104.014 634.041 103.786 634.041 103.498C634.041 103.21 633.891 102.988 633.591 102.832C633.303 102.676 632.853 102.538 632.241 102.418C631.557 102.286 630.969 102.118 630.477 101.914C629.997 101.71 629.625 101.434 629.361 101.086C629.109 100.726 628.983 100.258 628.983 99.682C628.983 99.13 629.139 98.638 629.451 98.206C629.763 97.762 630.189 97.414 630.729 97.162C631.281 96.898 631.911 96.766 632.619 96.766C633.567 96.766 634.341 96.988 634.941 97.432C635.553 97.876 635.919 98.446 636.039 99.142L634.221 99.628C634.137 99.28 633.957 99.01 633.681 98.818C633.405 98.614 633.033 98.512 632.565 98.512C632.097 98.512 631.737 98.608 631.485 98.8C631.245 98.992 631.125 99.232 631.125 99.52C631.125 99.808 631.263 100.036 631.539 100.204C631.827 100.36 632.313 100.51 632.997 100.654C633.633 100.786 634.185 100.954 634.653 101.158C635.133 101.35 635.511 101.62 635.787 101.968C636.063 102.304 636.201 102.76 636.201 103.336C636.201 103.9 636.039 104.398 635.715 104.83C635.403 105.25 634.965 105.58 634.401 105.82C633.837 106.048 633.195 106.162 632.475 106.162Z" fill="#012F34"/>
</g>
<path d="M118.088 107.104L119.304 111.136C118.835 111.499 118.227 111.787 117.48 112C116.755 112.213 116.008 112.32 115.24 112.32C113.853 112.32 112.637 112.043 111.592 111.488C110.547 110.912 109.683 110.08 109 108.992L106.28 104.64C105.96 104.128 105.64 103.776 105.32 103.584C105.021 103.371 104.669 103.253 104.264 103.232V112H99.144V89.28H106.6C109.736 89.28 112.083 89.9093 113.64 91.168C115.219 92.4267 116.008 94.1653 116.008 96.384C116.008 98.1333 115.464 99.5627 114.376 100.672C113.309 101.781 111.933 102.507 110.248 102.848C110.952 103.189 111.571 103.755 112.104 104.544L113.192 106.208C113.875 107.232 114.771 107.744 115.88 107.744C116.285 107.744 116.669 107.701 117.032 107.616C117.395 107.509 117.747 107.339 118.088 107.104ZM106.312 93.536H104.264V99.168H106.28C107.88 99.168 109.032 98.944 109.736 98.496C110.44 98.0267 110.792 97.3013 110.792 96.32C110.792 95.3387 110.397 94.6347 109.608 94.208C108.819 93.76 107.72 93.536 106.312 93.536ZM127.764 112.32C125.95 112.32 124.382 111.989 123.06 111.328C121.737 110.645 120.713 109.696 119.988 108.48C119.262 107.243 118.9 105.781 118.9 104.096C118.9 102.389 119.262 100.885 119.988 99.584C120.734 98.2827 121.726 97.2693 122.964 96.544C124.222 95.8187 125.641 95.456 127.22 95.456C129.012 95.456 130.473 95.8613 131.604 96.672C132.734 97.4827 133.513 98.6347 133.94 100.128C134.388 101.6 134.484 103.317 134.228 105.28H123.892C124.02 106.091 124.446 106.773 125.172 107.328C125.897 107.861 126.889 108.128 128.148 108.128C128.724 108.128 129.332 108.011 129.972 107.776C130.612 107.52 131.156 107.147 131.604 106.656L134.324 109.536C133.62 110.389 132.745 111.072 131.7 111.584C130.676 112.075 129.364 112.32 127.764 112.32ZM127.316 99.008C126.462 99.008 125.737 99.264 125.14 99.776C124.564 100.288 124.18 101.003 123.988 101.92H130.1C130.121 100.917 129.876 100.181 129.364 99.712C128.873 99.2427 128.19 99.008 127.316 99.008ZM153.232 95.776V112H148.304L148.464 109.568C147.29 111.403 145.552 112.32 143.248 112.32C141.797 112.32 140.56 111.989 139.536 111.328C138.512 110.667 137.733 109.749 137.2 108.576C136.666 107.403 136.4 106.059 136.4 104.544C136.4 102.731 136.773 101.141 137.52 99.776C138.266 98.4107 139.269 97.3547 140.528 96.608C141.786 95.84 143.194 95.456 144.752 95.456C145.776 95.456 146.682 95.6693 147.472 96.096C148.261 96.5013 148.869 97.0453 149.296 97.728L149.712 95.776H153.232ZM145.232 99.712C144.058 99.712 143.13 100.149 142.448 101.024C141.786 101.899 141.456 103.019 141.456 104.384C141.456 105.557 141.712 106.464 142.224 107.104C142.757 107.744 143.472 108.064 144.368 108.064C145.456 108.064 146.384 107.616 147.152 106.72C147.941 105.824 148.336 104.651 148.336 103.2C148.336 102.112 148.058 101.259 147.504 100.64C146.949 100.021 146.192 99.712 145.232 99.712ZM173.013 88.32V112H168.085L168.245 109.6C167.072 111.413 165.333 112.32 163.029 112.32C161.578 112.32 160.341 111.989 159.317 111.328C158.293 110.667 157.514 109.749 156.981 108.576C156.448 107.403 156.181 106.059 156.181 104.544C156.181 102.731 156.554 101.141 157.301 99.776C158.048 98.4107 159.05 97.3547 160.309 96.608C161.568 95.84 162.976 95.456 164.533 95.456C165.258 95.456 165.93 95.5627 166.549 95.776C167.168 95.9893 167.701 96.288 168.149 96.672L168.117 95.712V88.32H173.013ZM165.013 99.712C163.84 99.712 162.912 100.149 162.229 101.024C161.568 101.899 161.237 103.019 161.237 104.384C161.237 105.557 161.493 106.464 162.005 107.104C162.538 107.744 163.253 108.064 164.149 108.064C165.237 108.064 166.165 107.616 166.933 106.72C167.722 105.824 168.117 104.651 168.117 103.2C168.117 102.112 167.84 101.259 167.285 100.64C166.73 100.021 165.973 99.712 165.013 99.712ZM182.65 118.72C181.989 118.72 181.285 118.667 180.538 118.56C179.792 118.475 179.066 118.336 178.362 118.144C177.68 117.952 177.104 117.696 176.634 117.376L177.786 113.216C178.533 113.579 179.312 113.867 180.122 114.08C180.954 114.315 181.893 114.432 182.938 114.432C184.709 114.432 185.968 114.027 186.714 113.216C187.482 112.405 187.92 111.136 188.026 109.408L188.122 108.096C187.461 109.227 186.629 110.112 185.626 110.752C184.624 111.371 183.493 111.68 182.234 111.68C180.314 111.68 178.874 111.04 177.914 109.76C176.954 108.48 176.485 106.688 176.506 104.384L176.57 95.712H181.466L181.402 104.032C181.402 104.992 181.573 105.749 181.914 106.304C182.256 106.859 182.81 107.136 183.578 107.136C184.453 107.136 185.21 106.784 185.85 106.08C186.49 105.376 186.992 104.203 187.354 102.56C187.717 100.896 187.92 98.6133 187.962 95.712H192.698V108.832C192.698 112.245 191.792 114.741 189.978 116.32C188.186 117.92 185.744 118.72 182.65 118.72ZM211.841 112.32C209.836 112.32 208.246 111.765 207.073 110.656C205.9 109.525 205.324 108.043 205.345 106.208L205.473 99.776H202.785V95.712H205.537L205.569 92.384H210.433L210.401 95.712H215.489V99.776H210.337L210.241 105.664C210.241 106.432 210.444 107.029 210.849 107.456C211.254 107.883 211.862 108.096 212.673 108.096C213.142 108.096 213.59 108.043 214.017 107.936C214.465 107.808 214.924 107.573 215.393 107.232L216.801 110.976C215.713 111.872 214.06 112.32 211.841 112.32ZM225.856 95.456C228.395 95.456 230.379 96.1813 231.808 97.632C233.259 99.0827 233.984 101.045 233.984 103.52C233.984 105.205 233.621 106.709 232.896 108.032C232.171 109.355 231.147 110.4 229.824 111.168C228.501 111.936 226.944 112.32 225.152 112.32C222.635 112.32 220.651 111.595 219.2 110.144C217.771 108.693 217.056 106.741 217.056 104.288C217.056 102.581 217.419 101.067 218.144 99.744C218.869 98.4213 219.893 97.376 221.216 96.608C222.539 95.84 224.085 95.456 225.856 95.456ZM225.376 108.064C226.464 108.064 227.328 107.659 227.968 106.848C228.629 106.016 228.96 104.907 228.96 103.52C228.96 102.325 228.672 101.397 228.096 100.736C227.52 100.053 226.731 99.712 225.728 99.712C224.619 99.712 223.733 100.128 223.072 100.96C222.432 101.771 222.112 102.869 222.112 104.256C222.112 105.451 222.389 106.389 222.944 107.072C223.52 107.733 224.331 108.064 225.376 108.064ZM250.933 118.72C250.293 118.72 249.589 118.667 248.821 118.56C248.074 118.475 247.36 118.336 246.677 118.144C245.994 117.952 245.408 117.696 244.917 117.376L246.101 113.216C246.805 113.579 247.573 113.867 248.405 114.08C249.258 114.315 250.197 114.432 251.221 114.432C253.013 114.432 254.282 114.027 255.029 113.216C255.776 112.405 256.202 111.136 256.309 109.408L256.341 109.12C255.189 110.827 253.482 111.68 251.221 111.68C249.728 111.68 248.458 111.371 247.413 110.752C246.368 110.133 245.568 109.269 245.013 108.16C244.458 107.051 244.181 105.771 244.181 104.32C244.181 102.571 244.544 101.035 245.269 99.712C246.016 98.3893 247.018 97.3547 248.277 96.608C249.536 95.84 250.965 95.456 252.565 95.456C253.632 95.456 254.56 95.6693 255.349 96.096C256.16 96.5013 256.778 97.0453 257.205 97.728L257.621 95.776H261.141V108.832C261.141 111.051 260.714 112.885 259.861 114.336C259.029 115.808 257.845 116.907 256.309 117.632C254.794 118.357 253.002 118.72 250.933 118.72ZM253.077 99.712C251.882 99.712 250.944 100.117 250.261 100.928C249.578 101.739 249.237 102.763 249.237 104C249.237 105.088 249.504 105.931 250.037 106.528C250.592 107.125 251.338 107.424 252.277 107.424C253.024 107.424 253.696 107.232 254.293 106.848C254.89 106.464 255.36 105.931 255.701 105.248C256.064 104.565 256.245 103.787 256.245 102.912C256.245 101.931 255.957 101.152 255.381 100.576C254.805 100 254.037 99.712 253.077 99.712ZM272.951 112.32C271.138 112.32 269.57 111.989 268.247 111.328C266.925 110.645 265.901 109.696 265.175 108.48C264.45 107.243 264.087 105.781 264.087 104.096C264.087 102.389 264.45 100.885 265.175 99.584C265.922 98.2827 266.914 97.2693 268.151 96.544C269.41 95.8187 270.829 95.456 272.407 95.456C274.199 95.456 275.661 95.8613 276.791 96.672C277.922 97.4827 278.701 98.6347 279.127 100.128C279.575 101.6 279.671 103.317 279.415 105.28H269.079C269.207 106.091 269.634 106.773 270.359 107.328C271.085 107.861 272.077 108.128 273.335 108.128C273.911 108.128 274.519 108.011 275.159 107.776C275.799 107.52 276.343 107.147 276.791 106.656L279.511 109.536C278.807 110.389 277.933 111.072 276.887 111.584C275.863 112.075 274.551 112.32 272.951 112.32ZM272.503 99.008C271.65 99.008 270.925 99.264 270.327 99.776C269.751 100.288 269.367 101.003 269.175 101.92H275.287C275.309 100.917 275.063 100.181 274.551 99.712C274.061 99.2427 273.378 99.008 272.503 99.008ZM289.591 112.32C287.586 112.32 285.996 111.765 284.823 110.656C283.65 109.525 283.074 108.043 283.095 106.208L283.223 99.776H280.535V95.712H283.287L283.319 92.384H288.183L288.151 95.712H293.239V99.776H288.087L287.991 105.664C287.991 106.432 288.194 107.029 288.599 107.456C289.004 107.883 289.612 108.096 290.423 108.096C290.892 108.096 291.34 108.043 291.767 107.936C292.215 107.808 292.674 107.573 293.143 107.232L294.551 110.976C293.463 111.872 291.81 112.32 289.591 112.32ZM309.997 112.32C307.629 112.32 305.837 111.883 304.621 111.008C303.405 110.112 302.69 108.939 302.477 107.488L306.541 106.464C306.669 107.083 307.021 107.584 307.597 107.968C308.173 108.331 308.962 108.512 309.965 108.512C311.565 108.512 312.365 108.139 312.365 107.392C312.365 107.008 312.13 106.72 311.661 106.528C311.213 106.315 310.477 106.112 309.453 105.92C307.533 105.579 306.04 105.035 304.973 104.288C303.928 103.541 303.405 102.4 303.405 100.864C303.405 99.8187 303.704 98.8907 304.301 98.08C304.898 97.2693 305.72 96.6293 306.765 96.16C307.81 95.6907 309.016 95.456 310.381 95.456C312.152 95.456 313.613 95.872 314.765 96.704C315.938 97.536 316.632 98.56 316.845 99.776L312.845 100.864C312.696 100.395 312.397 100.011 311.949 99.712C311.522 99.4133 310.936 99.264 310.189 99.264C309.485 99.264 308.962 99.3813 308.621 99.616C308.301 99.8507 308.141 100.128 308.141 100.448C308.141 100.832 308.365 101.141 308.813 101.376C309.261 101.589 310.05 101.813 311.181 102.048C312.333 102.261 313.346 102.56 314.221 102.944C315.117 103.307 315.81 103.819 316.301 104.48C316.813 105.12 317.069 105.995 317.069 107.104C317.069 108.149 316.76 109.067 316.141 109.856C315.544 110.645 314.712 111.253 313.645 111.68C312.578 112.107 311.362 112.32 309.997 112.32ZM326.56 112.32C324.554 112.32 322.965 111.765 321.792 110.656C320.618 109.525 320.042 108.043 320.064 106.208L320.192 99.776H317.504V95.712H320.256L320.288 92.384H325.152L325.12 95.712H330.208V99.776H325.056L324.96 105.664C324.96 106.432 325.162 107.029 325.568 107.456C325.973 107.883 326.581 108.096 327.392 108.096C327.861 108.096 328.309 108.043 328.736 107.936C329.184 107.808 329.642 107.573 330.112 107.232L331.52 110.976C330.432 111.872 328.778 112.32 326.56 112.32ZM348.607 95.776V112H343.679L343.839 109.568C342.665 111.403 340.927 112.32 338.623 112.32C337.172 112.32 335.935 111.989 334.911 111.328C333.887 110.667 333.108 109.749 332.575 108.576C332.041 107.403 331.775 106.059 331.775 104.544C331.775 102.731 332.148 101.141 332.895 99.776C333.641 98.4107 334.644 97.3547 335.903 96.608C337.161 95.84 338.569 95.456 340.127 95.456C341.151 95.456 342.057 95.6693 342.847 96.096C343.636 96.5013 344.244 97.0453 344.671 97.728L345.087 95.776H348.607ZM340.607 99.712C339.433 99.712 338.505 100.149 337.823 101.024C337.161 101.899 336.831 103.019 336.831 104.384C336.831 105.557 337.087 106.464 337.599 107.104C338.132 107.744 338.847 108.064 339.743 108.064C340.831 108.064 341.759 107.616 342.527 106.72C343.316 105.824 343.711 104.651 343.711 103.2C343.711 102.112 343.433 101.259 342.879 100.64C342.324 100.021 341.567 99.712 340.607 99.712ZM363.556 100.448C363.129 100.277 362.553 100.192 361.828 100.192C360.719 100.192 359.833 100.587 359.172 101.376C358.511 102.144 358.031 103.403 357.732 105.152C357.433 106.88 357.284 109.163 357.284 112H352.42V101.44L352.356 95.712H357.252L357.028 99.776C357.604 98.2187 358.372 97.1093 359.332 96.448C360.313 95.7867 361.359 95.456 362.468 95.456C362.831 95.456 363.161 95.4773 363.46 95.52C363.78 95.5627 364.1 95.6373 364.42 95.744L363.556 100.448ZM374.872 112.32C372.867 112.32 371.278 111.765 370.104 110.656C368.931 109.525 368.355 108.043 368.376 106.208L368.504 99.776H365.816V95.712H368.568L368.6 92.384H373.464L373.432 95.712H378.52V99.776H373.368L373.272 105.664C373.272 106.432 373.475 107.029 373.88 107.456C374.286 107.883 374.894 108.096 375.704 108.096C376.174 108.096 376.622 108.043 377.048 107.936C377.496 107.808 377.955 107.573 378.424 107.232L379.832 110.976C378.744 111.872 377.091 112.32 374.872 112.32ZM388.951 112.32C387.138 112.32 385.57 111.989 384.247 111.328C382.925 110.645 381.901 109.696 381.175 108.48C380.45 107.243 380.087 105.781 380.087 104.096C380.087 102.389 380.45 100.885 381.175 99.584C381.922 98.2827 382.914 97.2693 384.151 96.544C385.41 95.8187 386.829 95.456 388.407 95.456C390.199 95.456 391.661 95.8613 392.791 96.672C393.922 97.4827 394.701 98.6347 395.127 100.128C395.575 101.6 395.671 103.317 395.415 105.28H385.079C385.207 106.091 385.634 106.773 386.359 107.328C387.085 107.861 388.077 108.128 389.335 108.128C389.911 108.128 390.519 108.011 391.159 107.776C391.799 107.52 392.343 107.147 392.791 106.656L395.511 109.536C394.807 110.389 393.933 111.072 392.887 111.584C391.863 112.075 390.551 112.32 388.951 112.32ZM388.503 99.008C387.65 99.008 386.925 99.264 386.327 99.776C385.751 100.288 385.367 101.003 385.175 101.92H391.287C391.309 100.917 391.063 100.181 390.551 99.712C390.061 99.2427 389.378 99.008 388.503 99.008ZM414.419 88.32V112H409.491L409.651 109.6C408.478 111.413 406.739 112.32 404.435 112.32C402.985 112.32 401.747 111.989 400.723 111.328C399.699 110.667 398.921 109.749 398.387 108.576C397.854 107.403 397.587 106.059 397.587 104.544C397.587 102.731 397.961 101.141 398.707 99.776C399.454 98.4107 400.457 97.3547 401.715 96.608C402.974 95.84 404.382 95.456 405.939 95.456C406.665 95.456 407.337 95.5627 407.955 95.776C408.574 95.9893 409.107 96.288 409.555 96.672L409.523 95.712V88.32H414.419ZM406.419 99.712C405.246 99.712 404.318 100.149 403.635 101.024C402.974 101.899 402.643 103.019 402.643 104.384C402.643 105.557 402.899 106.464 403.411 107.104C403.945 107.744 404.659 108.064 405.555 108.064C406.643 108.064 407.571 107.616 408.339 106.72C409.129 105.824 409.523 104.651 409.523 103.2C409.523 102.112 409.246 101.259 408.691 100.64C408.137 100.021 407.379 99.712 406.419 99.712ZM425.561 104.416L421.881 104.224C421.71 102.624 421.827 101.291 422.233 100.224C422.638 99.1573 423.342 98.2507 424.345 97.504C425.049 96.9493 425.539 96.4907 425.817 96.128C426.094 95.7653 426.233 95.3707 426.233 94.944C426.233 94.496 426.041 94.1333 425.657 93.856C425.273 93.5573 424.665 93.408 423.833 93.408C422.873 93.408 422.041 93.6853 421.337 94.24C420.633 94.7947 420.11 95.584 419.769 96.608L416.088 94.624C416.451 93.4933 417.038 92.5013 417.849 91.648C418.659 90.7947 419.619 90.1333 420.729 89.664C421.859 89.1947 423.065 88.96 424.345 88.96C425.731 88.96 426.937 89.2053 427.961 89.696C429.006 90.1867 429.817 90.8587 430.393 91.712C430.99 92.5653 431.289 93.5467 431.289 94.656C431.289 95.808 431.033 96.8107 430.521 97.664C430.03 98.5173 429.262 99.3493 428.217 100.16C427.235 100.928 426.553 101.621 426.169 102.24C425.806 102.837 425.603 103.563 425.561 104.416ZM423.769 112.32C422.851 112.32 422.105 112.043 421.529 111.488C420.953 110.933 420.665 110.219 420.665 109.344C420.665 108.491 420.953 107.787 421.529 107.232C422.105 106.677 422.851 106.4 423.769 106.4C424.686 106.4 425.433 106.677 426.009 107.232C426.585 107.787 426.873 108.491 426.873 109.344C426.873 110.219 426.585 110.933 426.009 111.488C425.433 112.043 424.686 112.32 423.769 112.32Z" fill="#012F34"/>
</g>
<defs>
<clipPath id="clip0_0_2238">
<rect width="768" height="200" fill="white"/>
</clipPath>
<clipPath id="clip1_0_2238">
<rect width="153" height="48" fill="white" transform="translate(517 76)"/>
</clipPath>
</defs>
</svg>
